<svg id="undraw_Graduation_ktn0_1_" data-name="undraw_Graduation_ktn0 (1)" xmlns="http://www.w3.org/2000/svg" xmlns:xlink="http://www.w3.org/1999/xlink" width="591" height="426.525" viewBox="0 0 591 426.525">
  <defs>
    <linearGradient id="linear-gradient" x1="-11.741" y1="5.084" x2="-11.741" y2="4.933" gradientUnits="objectBoundingBox">
      <stop offset="0" stop-color="gray" stop-opacity="0.251"/>
      <stop offset="0.535" stop-color="gray" stop-opacity="0.122"/>
      <stop offset="1" stop-color="gray" stop-opacity="0.102"/>
    </linearGradient>
  </defs>
  <ellipse id="Ellipse_50" data-name="Ellipse 50" cx="26.077" cy="3.911" rx="26.077" ry="3.911" transform="translate(7.013 234.937) rotate(-63.611)" fill="#e0e0e0"/>
  <ellipse id="Ellipse_51" data-name="Ellipse 51" cx="26.077" cy="2.658" rx="26.077" ry="2.658" transform="translate(333.972 397.316) rotate(-63.611)" fill="#e0e0e0"/>
  <rect id="Rectangle_67" data-name="Rectangle 67" width="15.646" height="52.153" transform="translate(163.763 301.141) rotate(39.547)" fill="#f55f44"/>
  <rect id="Rectangle_68" data-name="Rectangle 68" width="17.604" height="52.153" transform="translate(165.224 358.556) rotate(-166.769)" opacity="0.05"/>
  <rect id="Rectangle_69" data-name="Rectangle 69" width="15.646" height="52.153" transform="translate(165.224 358.555) rotate(-166.769)" fill="#f55f44"/>
  <rect id="Rectangle_70" data-name="Rectangle 70" width="54.761" height="363.768" transform="translate(9.937 237.842) rotate(-63.611)" fill="url(#linear-gradient)"/>
  <path id="Path_127" data-name="Path 127" d="M542.3,627.032c-6.378-3.059-330.534-164-325.861-161.682,17.992-27.461,23.18-46.719,23.18-46.719L565.484,580.314S554.04,600.4,542.3,627.032Z" transform="translate(-205.927 -228.675)" fill="#f5f5f5"/>
  <rect id="Rectangle_71" data-name="Rectangle 71" width="29.988" height="52.153" transform="translate(176.187 260.659) rotate(26.389)" opacity="0.05"/>
  <rect id="Rectangle_72" data-name="Rectangle 72" width="27.38" height="52.153" transform="translate(177.355 261.239) rotate(26.389)" fill="#f55f44"/>
  <rect id="Rectangle_73" data-name="Rectangle 73" width="18.254" height="52.153" transform="translate(180.858 262.977) rotate(26.389)" opacity="0.05"/>
  <rect id="Rectangle_74" data-name="Rectangle 74" width="15.646" height="52.153" transform="translate(182.026 263.557) rotate(26.389)" fill="#f55f44"/>
  <circle id="Ellipse_52" data-name="Ellipse 52" cx="2.174" cy="2.174" r="2.174" transform="translate(191.981 416.841)" fill="#dbdbdb"/>
  <g id="Group_55" data-name="Group 55" transform="translate(16.636 358.142)" opacity="0.5">
    <rect id="Rectangle_75" data-name="Rectangle 75" width="2.229" height="12.632" transform="translate(5.201)" fill="#47e6b1"/>
    <rect id="Rectangle_76" data-name="Rectangle 76" width="2.229" height="12.632" transform="translate(12.632 5.201) rotate(90)" fill="#47e6b1"/>
  </g>
  <g id="Group_56" data-name="Group 56" transform="translate(578.368 200.619)" opacity="0.5">
    <rect id="Rectangle_77" data-name="Rectangle 77" width="2.229" height="12.632" transform="translate(5.201)" fill="#47e6b1"/>
    <rect id="Rectangle_78" data-name="Rectangle 78" width="2.229" height="12.632" transform="translate(12.632 5.201) rotate(90)" fill="#47e6b1"/>
  </g>
  <g id="Group_57" data-name="Group 57" transform="translate(30.011 43.839)" opacity="0.5">
    <rect id="Rectangle_79" data-name="Rectangle 79" width="2.229" height="12.632" transform="translate(5.201)" fill="#47e6b1"/>
    <rect id="Rectangle_80" data-name="Rectangle 80" width="2.229" height="12.632" transform="translate(12.632 5.201) rotate(90)" fill="#47e6b1"/>
  </g>
  <g id="Group_58" data-name="Group 58" transform="translate(511.495 24.52)" opacity="0.5">
    <rect id="Rectangle_81" data-name="Rectangle 81" width="2.229" height="12.632" transform="translate(5.201)" fill="#47e6b1"/>
    <rect id="Rectangle_82" data-name="Rectangle 82" width="2.229" height="12.632" transform="translate(12.632 5.201) rotate(90)" fill="#47e6b1"/>
  </g>
  <path id="Path_128" data-name="Path 128" d="M211.436,414.689a2.73,2.73,0,0,1-1.521-3.3,1.312,1.312,0,0,0,.059-.3h0a1.369,1.369,0,0,0-2.46-.907h0a1.315,1.315,0,0,0-.151.269,2.73,2.73,0,0,1-3.3,1.521,1.313,1.313,0,0,0-.3-.059h0a1.369,1.369,0,0,0-.907,2.46h0a1.31,1.31,0,0,0,.269.151,2.73,2.73,0,0,1,1.521,3.3,1.311,1.311,0,0,0-.059.3h0a1.369,1.369,0,0,0,2.46.907h0a1.314,1.314,0,0,0,.151-.269,2.73,2.73,0,0,1,3.3-1.521,1.313,1.313,0,0,0,.3.059h0a1.369,1.369,0,0,0,.907-2.46h0a1.311,1.311,0,0,0-.269-.152Z" transform="translate(-202.308 -226.363)" fill="#4d8af0" opacity="0.5"/>
  <path id="Path_129" data-name="Path 129" d="M383.436,217.689a2.73,2.73,0,0,1-1.521-3.3,1.313,1.313,0,0,0,.059-.3h0a1.369,1.369,0,0,0-2.46-.907h0a1.309,1.309,0,0,0-.152.269,2.73,2.73,0,0,1-3.3,1.521,1.312,1.312,0,0,0-.3-.059h0a1.369,1.369,0,0,0-.907,2.46h0a1.309,1.309,0,0,0,.269.151,2.731,2.731,0,0,1,1.521,3.3,1.316,1.316,0,0,0-.059.3h0a1.369,1.369,0,0,0,2.46.907h0a1.315,1.315,0,0,0,.151-.269,2.73,2.73,0,0,1,3.3-1.521,1.31,1.31,0,0,0,.3.059h0a1.369,1.369,0,0,0,.907-2.46h0A1.316,1.316,0,0,0,383.436,217.689Z" transform="translate(-246.506 -175.74)" fill="#4d8af0" opacity="0.5"/>
  <path id="Path_130" data-name="Path 130" d="M593.436,728.689a2.73,2.73,0,0,1-1.521-3.3,1.314,1.314,0,0,0,.059-.3h0a1.369,1.369,0,0,0-2.46-.907h0a1.33,1.33,0,0,0-.152.269,2.73,2.73,0,0,1-3.3,1.521,1.32,1.32,0,0,0-.3-.059h0a1.369,1.369,0,0,0-.907,2.46h0a1.3,1.3,0,0,0,.269.152,2.73,2.73,0,0,1,1.521,3.3,1.315,1.315,0,0,0-.059.3h0a1.369,1.369,0,0,0,2.46.907h0a1.313,1.313,0,0,0,.152-.269,2.73,2.73,0,0,1,3.3-1.521,1.313,1.313,0,0,0,.3.059h0a1.369,1.369,0,0,0,.907-2.46h0A1.319,1.319,0,0,0,593.436,728.689Z" transform="translate(-300.47 -307.051)" fill="#4d8af0" opacity="0.5"/>
  <circle id="Ellipse_53" data-name="Ellipse 53" cx="4.458" cy="4.458" r="4.458" transform="translate(559.792 325.448)" fill="#f55f44" opacity="0.5"/>
  <circle id="Ellipse_54" data-name="Ellipse 54" cx="4.458" cy="4.458" r="4.458" transform="translate(461.712 353.683)" fill="#4d8af0" opacity="0.5"/>
  <circle id="Ellipse_55" data-name="Ellipse 55" cx="4.458" cy="4.458" r="4.458" transform="translate(72.363 397.522)" fill="#47e6b1" opacity="0.5"/>
  <circle id="Ellipse_56" data-name="Ellipse 56" cx="4.458" cy="4.458" r="4.458" transform="translate(301.217)" fill="#f55f44" opacity="0.5"/>
  <path id="Path_131" data-name="Path 131" d="M401.03,499.667,383.2,526.416s5.944,27.492,137.461,26.749,141.919-26.749,141.919-26.749l-24.52-35.666-75.046-51.269Z" transform="translate(-248.791 -234.033)" fill="#f95884"/>
  <path id="Path_132" data-name="Path 132" d="M401.03,499.667,383.2,526.416s5.944,27.492,137.461,26.749,141.919-26.749,141.919-26.749l-24.52-35.666-75.046-51.269Z" transform="translate(-248.791 -234.033)" opacity="0.15"/>
  <path id="Path_133" data-name="Path 133" d="M535.774,182.885,301.718,286.167,16.394,182.885,277.941,64,406.33,123.2l4.6,2.125Z" transform="translate(-4.216 -16.446)" fill="#f95884"/>
  <path id="Path_134" data-name="Path 134" d="M535.774,182.885,301.718,286.167,16.394,182.885,277.941,64,406.33,123.2l4.6,2.125Z" transform="translate(-4.216 -16.446)" opacity="0.15"/>
  <path id="Path_135" data-name="Path 135" d="M550.628,228.116l-4.458.267-4.986-84.713,4.6,2.125Z" transform="translate(-139.071 -36.919)" fill="#f5f5f5"/>
  <path id="Path_136" data-name="Path 136" d="M404,381.247,383.2,507.562s149.35-48.3,279.38,0L643.258,373.817S468.646,352.269,404,381.247Z" transform="translate(-248.791 -215.179)" fill="#f95884"/>
  <ellipse id="Ellipse_57" data-name="Ellipse 57" cx="21.548" cy="14.861" rx="21.548" ry="14.861" transform="translate(389.638 187.244)" fill="#f5f5f5"/>
</svg>
