<svg xmlns="http://www.w3.org/2000/svg" width="575.454" height="360.603" viewBox="0 0 575.454 360.603">
  <g id="Group_82" data-name="Group 82" transform="translate(-270.601 -1336.661)">
    <path id="Path_262" data-name="Path 262" d="M4150.6,1764.334c38.675-14.351,19.337-74.364,54.145-74.364s43.832,33.92,81.218,30.007,38.676-65.232,83.8-45.662,140.521-19.569,130.207-62.622-52.856-32.616-30.94-76.973,25.784-86.106-34.808-92.629-77.351,13.046-105.712-13.046-103.135-35.225-116.025,13.046-54.146,114.808-130.207,97.847-91.842-8.943-103.133,24.788-29.663,88.2,13.2,138.1S4111.929,1778.685,4150.6,1764.334Z" transform="translate(-3654.688 -71)" fill="#29c7b6"/>
    <rect id="Rectangle_111" data-name="Rectangle 111" width="513.175" height="257.809" transform="translate(270.601 1385.717)" fill="#3f3d56"/>
    <rect id="Rectangle_112" data-name="Rectangle 112" width="192.441" height="131.96" transform="translate(414.779 1460.249)" opacity="0.1"/>
    <circle id="Ellipse_88" data-name="Ellipse 88" cx="6.109" cy="6.109" r="6.109" transform="translate(317.642 1389.382)" fill="#29c7b6"/>
    <rect id="Rectangle_113" data-name="Rectangle 113" width="12.218" height="12.218" transform="translate(329.86 1481.632)" fill="#29c7b6"/>
    <rect id="Rectangle_114" data-name="Rectangle 114" width="12.218" height="12.218" transform="translate(701.912 1587.932)" fill="#fff"/>
    <rect id="Rectangle_115" data-name="Rectangle 115" width="12.218" height="12.218" transform="matrix(0.777, -0.629, 0.629, 0.777, 661.553, 1510.659)" fill="#29c7b6"/>
    <path id="Path_250" data-name="Path 250" d="M234.25,673.244l-5.456,15.273H216.533V672.938c.9-19.543,11.87-28.732,12.212-29.013-8.241,7.948-7.325,35.427-7.325,35.427,5.5-23.826,10.386-24.437,10.386-24.437-2.957,4.441-4.484,24.645-4.576,25.9C227.6,676.573,234.25,673.244,234.25,673.244Z" transform="translate(125.546 955.01)" fill="#f2f2f2"/>
    <path id="Path_251" data-name="Path 251" d="M962.962,682.965v13.2h-9.426L948.911,683.2s5.272,2.639,5.566,6.006c-.073-1.039-1.283-17.02-3.629-20.539,0,0,3.879.483,8.241,19.379,0,0,.721-21.792-5.81-28.1C953.554,660.177,962.247,667.46,962.962,682.965Z" transform="translate(-223.783 947.365)" fill="#f2f2f2"/>
    <path id="Path_252" data-name="Path 252" d="M644.686,578.115H629.827l-.1-1.219-1.083-13.583v-.005l-1.125-14.122,6.857-29.127,5.826,5.826v27.757s3.426,5.141,2.741,6.512-1.37,1.37-.685,2.4,1.37,1.716.685,2.4a2.573,2.573,0,0,0,0,3.086c.685.685,2.055,1.71,1.025,2.741s-2.4.34-1.025,4.111a12.024,12.024,0,0,0,.941,2.008A13.3,13.3,0,0,0,644.686,578.115Z" transform="translate(-70.486 1014.091)" fill="#d0cde1"/>
    <path id="Path_253" data-name="Path 253" d="M555.314,343.847l-2.056,20.561,20.9,3.084L575.7,355.67l1.542-11.823Z" transform="translate(-26.893 1154.492)" fill="#ffb9b9"/>
    <path id="Path_254" data-name="Path 254" d="M555.314,343.847l-2.056,20.561,20.9,3.084L575.7,355.67l1.542-11.823Z" transform="translate(-26.893 1154.492)" opacity="0.1"/>
    <circle id="Ellipse_89" data-name="Ellipse 89" cx="16.449" cy="16.449" r="16.449" transform="translate(523.452 1472.124)" fill="#ffb9b9"/>
    <path id="Path_255" data-name="Path 255" d="M495.947,565.924c-.058-.12-.12-.246-.183-.382-.12-.256-.251-.534-.392-.837-.91-2.029-2.024-4.916-1.381-5.779,1.03-1.37,1.37-2.741.685-3.426s-2.741.685-.685-1.03,2.741-.685,2.055-2.741-2.055-1.025-.685-2.055,2.4-.685,1.716-1.71-2.055-1.03-.685-1.716,2.4,0,2.055-1.716-.685-1.025,0-1.71a33.047,33.047,0,0,0,1.632-4.367c2.327-6.961,6.25-19.8,6.25-20.309,0-.685-5.481-22.27-5.481-22.27l-2.4-1.376s-10.623,7.2-14.048,23.306-5.826,20.22-5.826,20.22-3.426.685-1.03,3.081,2.4,2.055.345,3.426-3.426-1.37-2.055,1.37,3.081,2.061,1.71,3.771-3.766,1.716-2.4,3.086-1.37,4.456.34,5.826,2.4,1.71,2.4,4.111a12.7,12.7,0,0,0,.162,2.008,10.253,10.253,0,0,0,.251,1.219c.078.319.157.56.209.711Z" transform="translate(2.388 1026.282)" fill="#d0cde1"/>
    <path id="Path_256" data-name="Path 256" d="M483.763,522.874h1.4l.073-.486-1.653.1-6.01.382-11.245.711Z" transform="translate(14.573 1069.332)" fill="#3f3d56"/>
    <path id="Path_257" data-name="Path 257" d="M524.866,534.434l-3.081-10.623L521.7,521.5l-1.632-43.955,20.22-7.191,3.426-2.746s.685-7.882,1.715-8.567c.371-.246.968.042,1.757.711,1.386,1.177,3.373,3.525,5.779,6.145,3.771,4.111,11.653,3.426,14.048,2.055a8.089,8.089,0,0,1,.957-.476c1.721-.711,2.469-.209,2.469-.209,1.716,1.37-2.4,5.826-2.4,5.826s1.37,3.081,10.277,6.166,10.628,17.479,10.628,17.479-10.628,28.782-10.283,30.837c.293,1.763-.921,5.539-1.276,6.585v.005c-.057.167-.094.267-.094.267l.779,13.316.073,1.219H526.315a7.046,7.046,0,0,0-.581-1.219c-.057-.094-.12-.193-.183-.293C522.471,542.656,524.866,534.434,524.866,534.434Z" transform="translate(-19.235 1043.237)" fill="#d0cde1"/>
    <path id="Path_258" data-name="Path 258" d="M562,414.552a7.542,7.542,0,0,1-1.051-5.321,16.127,16.127,0,0,0,.46-4.8,47.452,47.452,0,0,1,2.759-6.964c1.38-2.5.723-3.548,5.059-4.336s2.562-6.438,13.993-.328a3.352,3.352,0,0,0,3.482,1.314c2.365-.46,3.219,2.825,3.219,2.825s1.577-.92,2.168.394,4.807-.789,4.807,8.081-4.8,16.792-4.8,16.792.352-14.919-7.466-16.43-16.227-5.913-18.264-.263A43.066,43.066,0,0,1,562,414.552Z" transform="translate(-38.661 1076.127)" fill="#2f2e41"/>
    <ellipse id="Ellipse_90" data-name="Ellipse 90" cx="1.542" cy="2.056" rx="1.542" ry="2.056" transform="translate(552.066 1490.115)" fill="#ffb9b9"/>
    <path id="Path_259" data-name="Path 259" d="M355.53,360.07V501.8H580.35V360.07Zm223.6,140.515H356.754V361.294H579.132Z" transform="translate(59.247 1090.403)" fill="#fff"/>
    <circle id="Ellipse_86" data-name="Ellipse 86" cx="6.109" cy="6.109" r="6.109" transform="translate(279.765 1389.382)" fill="#29c7b6"/>
    <circle id="Ellipse_87" data-name="Ellipse 87" cx="6.109" cy="6.109" r="6.109" transform="translate(298.703 1389.382)" fill="#29c7b6"/>
  </g>
</svg>
